<svg width="100%" height="100%" xmlns="http://www.w3.org/2000/svg" xmlns:svg="http://www.w3.org/2000/svg">
 <!-- Created with SVG-edit - http://svg-edit.googlecode.com/ -->
 <g transform="scale(3)  translate(193,20)">
   <path stroke-width="5" id="svg_1" d="m0,0m0,0c-12,-13.06 -5.661,-7.64633 -26.907,-12.6463l-137.503,0l0,0l50.382,0l94.464,0c6.123,0 11.997,2.4913 16.329,6.92427c4.32999,4.43602 6.763,10.44902 6.763,16.72203l0,59.114l0,0l0,35.469l0,0c0,13.057 1.66199,21.645 -23.092,23.645l-23.232,0l-23.232,0l-25.819,32.12601l-19.282,-33.063l-36.28101,-0.063l37.375,0l17.37611,33l24.7515,-32c-12.7541,0 43.9074,-0.588 58.9074,-0.645l13,-8.99999l0,-52.469l-1,-17l0.125,-4.8893l0.125,-4.8892l0.125,-4.8892l0.06201,-2.4447l0.06299,-2.4446l-3.5,-30.557zm-20,65.0555c-2.747,-4.1868 -6.1245,-7.5807 -9.4743,-9.9551c-3.9555,2.4381 -8.7348,3.915 -13.9795,3.915l-13.3171,-3.0767c-4.0125,-0.6994 -21.6361,-19.1017 -24.3828,-14.915c-6.3988,9.7295 12.1024,29.4881 17.622,32.0767c2.4714,1.1642 0.2108,3.3902 1.9085,7.9193c1.6978,4.5291 0.793,3.4524 -3.503,7.9629c-4.2959,4.5104 -14.27821,5.6135 -9.3932,13.8344c4.885,8.221 28.5451,-2.542 29.4516,-7.56841c0.9058,5.02641 4.4148,17.46841 8.2046,17.46841c6.3165,0 11.4527,-9.011 11.4527,-20.1417c0,-2.5016 -0.2753,-4.8994 -0.7692,-7.1056c2.6915,2.1774 5.3004,3.0463 7.7727,1.882c5.5197,-2.5885 4.8057,-12.5668 -1.593,-22.2962zm-23.4539,-9.8333c10.6286,0 19.2513,-7.2739 19.2513,-16.2387s-8.6227,-16.2443 -19.2513,-16.2443c-10.6286,0 -19.252,7.2739 -19.252,16.2443s8.6234,16.2387 19.252,16.2387zm-150.0001,-45l0,0c0,-13.05997 10.338,-23.6463 23.092,-23.6463l10.49699,0l0,0c-26.20599,112 50.843,-19.2913 73.382,21c22.539,40.2913 -38.922,37.5823 -26.382,120.8741l-57.497,0c-12.754,0 -23.092,-10.588 -23.092,-23.645l0,0l0,-35.4687l0,0l0,-59.1141l0,0z" stroke="#000000" fill="#EE0000"/>   
 </g>
</svg>
