<svg width="100%" height="100%" xmlns="http://www.w3.org/2000/svg" xmlns:svg="http://www.w3.org/2000/svg">
 <!-- Created with SVG-edit - http://svg-edit.googlecode.com/ -->
 <g transform="scale(3) translate(-2,-2)">
   <!--<path fill="#000000" stroke="#000000" stroke-dasharray="null" stroke-linejoin="null" stroke-linecap="null" d="m33.45538,6.34011c-1.84232,-2.14868 -0.86911,-1.258 -4.13094,-2.08062l-21.11045,0l0,0l7.73499,0l14.50281,0c0.94004,0 1.84186,0.40988 2.50694,1.13921c0.66477,0.72983 1.0383,1.71911 1.0383,2.75116l0,9.72563l0,0l0,5.83541l0,0c0,2.14819 0.25516,3.56111 -3.54524,3.89016l-3.56673,0l-3.56674,0l-3.9639,5.28548l-2.96026,-5.43963l-5.57021,-0.01037l5.73818,0l2.66764,5.42927l3.80002,-5.26475c-1.9581,0 6.74096,-0.09674 9.04386,-0.10611l1.99585,-1.48071l0,-8.63231l-0.15353,-2.7969l0.01919,-0.80441l0.01919,-0.80439l0.01919,-0.80439l0.00952,-0.40221l0.00967,-0.40219z" fill-opacity="0" id="svg_7"></path>
   <path fill="#ff0000" stroke="#000000" stroke-dasharray="null" stroke-linejoin="null" stroke-linecap="null" d="m3.17589,8.07017l0,0c0,-2.14868 1.58719,-3.89037 3.54527,-3.89037l1.61157,0l0,0c2.57833,0 12.52594,0.16452 15.10427,0.16452c-0.68489,7.78052 -11.80958,15.39647 -12.49432,23.17711l-4.22152,0c-1.95808,0 -3.54527,-1.74197 -3.54527,-3.89016l0,0l0,-5.83547l0,0l0,-9.72563l0,0z" id="svg_6"></path>
   <path id="svg_1" d="m28.39002,18.229c-0.09273,-0.81782 -0.32622,-1.56479 -0.62535,-2.15943c-0.71031,0.07071 -1.46848,-0.06043 -2.19008,-0.44332l-1.62264,-1.42581c-0.50441,-0.39604 -1.67552,-4.39584 -2.33864,-3.97908c-1.54319,0.96737 -0.34372,5.23123 0.23934,6.01583c0.26073,0.35207 -0.20194,0.51524 -0.2769,1.30695c-0.07495,0.79171 -0.12609,0.56692 -1.02443,0.91832c-0.89832,0.3514 -2.34688,-0.2147 -2.2348,1.35398c0.11208,1.56868 4.10053,1.70914 4.56768,1.03419c-0.2178,0.80725 -0.58262,2.89789 -0.0612,3.17455c0.86906,0.46112 2.1896,-0.49254 2.94787,-2.13366c0.17042,-0.36884 0.29589,-0.74246 0.37823,-1.10381c0.22198,0.51753 0.52173,0.83609 0.9412,0.84492c0.93577,0.0213 1.51729,-1.50203 1.29973,-3.40365zm-2.55703,-3.16201c1.46233,0.77592 3.1442,0.33294 3.75492,-0.98883s-0.07973,-3.02454 -1.54206,-3.80046c-1.46233,-0.77592 -3.14431,-0.333 -3.75541,0.9896s0.08021,3.02377 1.54255,3.79969z" stroke="#000000" fill="#FF0000"></path>-->
   
   
 <path stroke-width="6" fill="#000000" stroke="#000000" stroke-linejoin="null" stroke-linecap="null" d="m230.05157,20.57072c-13.53049,-13.86636 -6.38297,-8.11842 -30.33951,-13.42714l-155.04245,0l0,0l56.8087,0l106.51378,0c6.90372,0 13.52762,2.64514 18.41159,7.35181c4.88254,4.70992 7.62564,11.09416 7.62564,17.75443l0,62.76373l0,0l0,37.65836l0,0c0,13.86325 -4.46756,25.22574 -26.03723,25.10513l-26.19513,0l-26.19586,0l-29.1123,34.10898l-21.74077,-35.1041l-40.91029,-0.06711l42.14342,0l19.59254,35.03757l27.90857,-33.97534c-3.50931,0 49.50833,-0.62469 66.42166,-0.68536c6.69788,-0.64151 10.67786,-3.07855 13.29889,-10.00446l1.35898,-55.25908l-1.12732,-18.04961l0.14093,-5.19113l0.14029,-5.19115l0.14105,-5.19115l0.0705,-2.59557l0.07043,-2.59555l-3.94611,-32.44327z" fill-opacity="0" id="svg_7"/>
   <path stroke-width="6" fill="#ff0000" stroke="#000000" stroke-linejoin="null" stroke-linecap="null" d="m5.17657,31.28665l0,0c0,-13.86635 11.65689,-25.10623 26.03773,-25.10623l11.83597,0l0,0c18.93616,0 91.99498,1.06172 110.9312,1.06172c-5.03012,50.21103 -86.73383,99.36006 -91.7628,149.57185l-31.00436,0c-14.38084,0 -26.03773,-11.24164 -26.03773,-25.10486l0,0l0,-37.65881l0,0l0,-62.76367l0,0z" id="svg_6"/>
   <path stroke-width="6" id="svg_1" d="m190.35806,96.84596c-0.68079,-5.27762 -2.39575,-10.09833 -4.59244,-13.93555c-5.21674,0.45627 -10.78516,-0.39043 -16.08487,-2.86082l-11.91696,-9.2019c-3.7052,-2.55557 -12.30621,-28.368 -17.17624,-25.67821c-11.33383,6.2424 -2.52426,33.75917 1.75748,38.82254c1.91544,2.27226 -1.48282,3.3248 -2.0329,8.43398c-0.55081,5.10921 -0.92612,3.65909 -7.52429,5.92683c-6.59744,2.26775 -17.2365,-1.38554 -16.41318,8.7373c0.82329,10.1235 30.11557,11.0302 33.54681,6.67413c-1.59958,5.20985 -4.27881,18.7014 -0.44946,20.48708c6.383,2.97565 16.08121,-3.17899 21.65042,-13.76968c1.2515,-2.38004 2.17322,-4.79105 2.77762,-7.12331c1.63046,3.33966 3.8316,5.39572 6.91254,5.4525c6.87286,0.13747 11.14362,-9.69305 9.54547,-21.96489l0,0zm-18.77954,-20.40575c10.73965,5.00722 23.09216,2.14835 27.57736,-6.38115s-0.58533,-19.51906 -11.32501,-24.52626c-10.74039,-5.00735 -23.0936,-2.149 -27.58173,6.38631s0.58899,19.51389 11.32938,24.5211z" stroke="#000000" fill="#FF0000"/>   
 </g>
</svg>
