<svg width="100%" height="100%" xmlns="http://www.w3.org/2000/svg" xmlns:svg="http://www.w3.org/2000/svg">
 <!-- Created with SVG-edit - http://svg-edit.googlecode.com/ -->
 <g transform="scale(3)  translate(205,75)">
   <path stroke-width="5" id="svg_1" d="M 0,0 m0,-0.28125m17.4023,-9.28125c-0.6093,-1.2475 -72.0008,-41.6073 -110.1218,-62.8494l-107.12851,57.9023l-3.16399,1.8985l109.66759,-61.7383l80.8468,46.3398c14.34957,8.8594 30.915,17.2101 31.7274,18.94773c0.8125,1.73765 -17.49477,0.21855 -18.76039,2.69468l3.05859,76.19989l0,0l0,35.4693l0,0c0,13.057 1.66199,21.645 -23.092,23.645l-23.232,0l-23.232,0l-25.819,32.12599l-19.282,-33.063l-58.21901,-0.063l59.313,0l17.37611,33.00001l24.7515,-32c-12.7541,0 43.9074,-0.58801 58.9074,-0.645l13,-9l0,-52.4693l-1,-17l0.125,-4.8892l-0.50781,-4.8893l-0.19141,-5.2056l0.06201,-1.8118l-2.46826,-40.41339c5.9349,-0.16614 17.99217,-0.93841 17.38277,-2.18591zm-37.4023,74.3367c-2.747,-4.1868 -6.1245,-7.5806 -9.4743,-9.9551c-3.9555,2.4382 -8.7348,3.915 -13.9795,3.915l-13.3171,-3.0766c-4.0125,-0.6995 -21.6361,-19.1017 -24.3828,-14.915c-6.3988,9.7295 12.1024,29.4881 17.622,32.0767c2.4714,1.1642 0.2108,3.3902 1.9085,7.9192c1.6978,4.5291 0.793,3.4524 -3.503,7.9629c-4.2959,4.5104 -14.27821,5.61349 -9.3932,13.8347c4.885,8.221 28.5451,-2.54221 29.4516,-7.5687c0.9058,5.0265 4.4148,17.4687 8.2046,17.4687c6.3165,0 11.4527,-9.01099 11.4527,-20.1419c0,-2.5017 -0.2753,-4.8994 -0.7692,-7.1056c2.6915,2.1774 5.3004,3.0462 7.7727,1.8819c5.5197,-2.58849 4.8057,-12.5668 -1.593,-22.2962zm-23.4539,-9.8333c10.6286,0 19.2513,-7.2739 19.2513,-16.2386s-8.6227,-16.2443 -19.2513,-16.2443c-10.6286,0 -19.252,7.2738 -19.252,16.2443s8.6234,16.2386 19.252,16.2386zm-150.0001,-44.99995l0,0c0,-13.05997 10.338,-23.64625 23.092,-23.64625l-30.952,0.3164l103.46459,-57.375c43.7042,18.5781 92.92115,44.2282 112.2531,58.1367c19.332,13.90847 -59.5743,-16.6052 -183.7997,-0.5322l-0.966,140.7654c-12.754,0 -23.092,-10.025 -23.092,-23.082l0,0l0,-35.4689l0,0l0,-59.11415l0,0z" stroke="#000000" fill="#EE0000"/>   
 </g>
</svg>
