<svg width="100%" height="100%" xmlns="http://www.w3.org/2000/svg" xmlns:svg="http://www.w3.org/2000/svg">
 <!-- Created with SVG-edit - http://svg-edit.googlecode.com/ -->
 <g transform="scale(3)  translate(195,75)">
   <path stroke-width="3" id="svg_1" d="m0,0m3,-9.28125m-44.5977,-41.28125c-0.6093,-1.2475 -12.0008,20.3927 -7.1218,37.1506l-120.12851,0.9023l-0.16399,-0.1015l119.66759,1.2617l20.8468,18.3398c10.3495,-22.1406 7.915,42.2101 29.72739,5.94773c-14.18749,6.73767 -1.49479,132.21858 -15.76041,116.69467l22.05859,-8.80009c-1,-6.66666 -2,-13.33334 -3,-20l-1,-0.5307l3,13c0,13.05701 -1.33801,13.645 -26.09197,15.645l-23.232,0l-23.232,0l-25.819,32.12599l-19.282,-33.063l-58.21901,-0.063l59.313,0l17.37611,33.00001l24.7515,-32c-12.7541,0 43.9074,-0.58801 58.90735,-0.645l13,-9l0,-38.4693l-1,-31l0.125,-4.8892l-0.50781,-4.8893l-0.19141,-5.2056l0.06201,-1.8118l7.53176,-18.4134c5.9349,-11.16611 62.9922,-33.9384 18.3828,-66.1859c1.6667,-14.6667 -26.66668,-27.3333 -38.00001,-12c-6.99999,4.6667 -19.99999,-3.6667 -31.99999,13l0,0zm21.5977,115.3367c-2.747,-4.1868 -6.1245,-7.5806 -9.4743,-9.9551c-3.9555,2.4382 -8.7348,3.915 -13.9795,3.915l-13.3171,-3.0766c-4.0125,-0.6995 -21.6361,-19.1017 -24.3828,-14.915c-6.3988,9.7295 12.1024,29.4881 17.622,32.0767c2.4714,1.1642 0.2108,3.3902 1.9085,7.9192c1.6978,4.5291 0.793,3.4524 -3.503,7.9629c-4.2959,4.5104 -14.27821,5.61349 -9.3932,13.8347c4.885,8.221 28.5451,-2.54221 29.4516,-7.5687c0.9058,5.0265 4.4148,17.4687 8.2046,17.4687c6.3165,0 11.4527,-9.01099 11.4527,-20.1419c0,-2.5017 -0.2753,-4.8994 -0.7692,-7.1056c2.6915,2.1774 5.3004,3.0462 7.7727,1.8819c5.5197,-2.58849 4.8057,-12.5668 -1.593,-22.2962zm-23.4539,-9.8333c10.6286,0 19.2513,-7.2739 19.2513,-16.2386s-8.6227,-16.2443 -19.2513,-16.2443c-10.6286,0 -19.252,7.2738 -19.252,16.2443s8.6234,16.2386 19.252,16.2386zm-150.0001,-44.99995l0,0c0,-13.05997 10.338,-23.64625 23.092,-23.64625l1.048,2.3164l0.465,113.6249c55.704,5.578 135.9207,11.22799 167.25269,-4.863c-50.66799,19.908 -65.57429,6.395 -167.79969,6.468l-0.966,23.765c-12.754,0 -23.092,-10.025 -23.092,-23.082l0,0l0,-35.4689l0,0l0,-59.11415l0,0l0,0l0,0z" stroke="#000000" fill="#00EE00"/>   
 </g>
</svg>
